<svg width="1600" height="420" viewBox="0 0 1600 420" fill="none" xmlns="http://www.w3.org/2000/svg" role="img" aria-labelledby="title desc">
  <title id="title">Sea Sharp organization banner</title>
  <desc id="desc">Sea Sharp organization banner using the original brand mark and a restrained technical layout.</desc>
  <defs>
    <linearGradient id="bannerBackground" x1="98" y1="34" x2="1505" y2="402" gradientUnits="userSpaceOnUse">
      <stop offset="0" stop-color="#031029"/>
      <stop offset="0.48" stop-color="#081223"/>
      <stop offset="1" stop-color="#070D1A"/>
    </linearGradient>
    <linearGradient id="markGradient" x1="0.08" y1="0.02" x2="0.88" y2="0.98">
      <stop offset="0" stop-color="#24D0FF"/>
      <stop offset="0.76" stop-color="#12C8FF"/>
      <stop offset="1" stop-color="#08D6A6"/>
    </linearGradient>
    <linearGradient id="accentLine" x1="0" y1="0" x2="388" y2="0" gradientUnits="userSpaceOnUse">
      <stop offset="0" stop-color="#00C8FF"/>
      <stop offset="1" stop-color="#00D9A3"/>
    </linearGradient>
    <linearGradient id="gridLine" x1="880" y1="0" x2="1470" y2="0" gradientUnits="userSpaceOnUse">
      <stop offset="0" stop-color="#00C8FF" stop-opacity="0"/>
      <stop offset="0.5" stop-color="#00C8FF" stop-opacity="0.16"/>
      <stop offset="1" stop-color="#00D9A3" stop-opacity="0"/>
    </linearGradient>
    <radialGradient id="markGlow" cx="0" cy="0" r="1" gradientUnits="userSpaceOnUse" gradientTransform="translate(296 211) rotate(12.4) scale(314 206)">
      <stop offset="0" stop-color="#00C8FF" stop-opacity="0.24"/>
      <stop offset="0.55" stop-color="#00C8FF" stop-opacity="0.08"/>
      <stop offset="1" stop-color="#00C8FF" stop-opacity="0"/>
    </radialGradient>
  </defs>

  <rect x="1" y="1" width="1598" height="418" rx="28" fill="url(#bannerBackground)"/>
  <rect x="1" y="1" width="1598" height="418" rx="28" stroke="#152035"/>

  <ellipse cx="296" cy="212" rx="312" ry="214" fill="url(#markGlow)"/>

  <g opacity="0.28">
    <path d="M884 88H1458" stroke="url(#gridLine)" stroke-width="1"/>
    <path d="M844 210H1492" stroke="url(#gridLine)" stroke-width="1"/>
    <path d="M908 332H1458" stroke="url(#gridLine)" stroke-width="1"/>
    <path d="M1222 58V362" stroke="#152035" stroke-width="1"/>
  </g>

  <g transform="translate(116 387.96) scale(0.076 -0.076)" fill="url(#markGradient)">
    <path d="M3198 4370 c-52 -27 -98 -47 -102 -43 -3 3 -6 1 -6 -6 0 -7 -4 -9 -10 -6 -5 3 -10 2 -10 -3 0 -9 -120 -67 -132 -64 -5 1 -8 -3 -8 -9 0 -5 -4 -7 -10 -4 -5 3 -10 2 -10 -3 0 -6 -11 -12 -23 -16 -47 -11 -75 -44 -83 -94 -4 -26 -7 -55 -5 -65 1 -10 -3 -24 -9 -32 -6 -8 -9 -23 -5 -35 4 -12 2 -27 -4 -33 -5 -7 -10 -28 -10 -47 1 -41 -6 -99 -16 -153 -4 -20 -9 -52 -10 -70 -9 -96 -16 -155 -22 -177 -7 -32 -13 -78 -13 -110 -1 -14 -4 -32 -7 -40 -4 -8 -8 -28 -9 -45 -2 -16 -4 -39 -5 -50 -1 -11 -8 -67 -16 -125 -8 -58 -14 -112 -14 -120 -1 -8 -5 -40 -10 -70 -11 -60 -20 -124 -23 -155 0 -11 -5 -25 -9 -32 -4 -6 -7 -24 -7 -40 1 -15 -1 -46 -4 -68 -7 -58 -16 -124 -21 -175 -3 -25 -12 -90 -20 -145 -8 -55 -16 -116 -17 -135 l-3 -35 75 0 c75 0 218 13 230 20 4 2 27 7 53 10 92 13 101 18 108 61 19 124 67 467 123 894 21 156 26 192 31 212 3 13 10 59 15 103 5 44 11 94 14 110 3 17 8 57 11 90 5 55 13 117 20 156 2 9 6 40 10 70 3 30 10 79 15 109 5 30 12 71 15 90 3 19 7 46 9 60 3 14 8 59 11 100 4 41 10 94 15 118 4 23 4 44 0 47 -4 2 -50 -18 -102 -45z"/>
    <path d="M1960 4318 c-80 -39 -148 -71 -152 -70 -5 1 -8 -2 -8 -8 0 -5 -3 -9 -7 -8 -11 2 -126 -55 -135 -67 -4 -5 -8 -6 -8 -2 0 17 -25 -17 -27 -37 -1 -11 -6 -55 -13 -96 -6 -41 -11 -84 -11 -95 0 -11 -4 -36 -9 -56 -5 -19 -12 -66 -15 -105 -3 -38 -8 -80 -10 -94 -3 -14 -7 -41 -10 -60 -2 -19 -11 -87 -20 -150 -8 -63 -17 -126 -20 -139 -2 -12 -7 -42 -9 -66 -3 -24 -7 -49 -8 -57 -2 -10 32 -14 168 -19 94 -4 176 -9 181 -12 5 -3 30 -9 55 -12 56 -8 44 -54 103 390 49 369 102 751 112 803 3 17 1 32 -3 31 -5 0 -74 -32 -154 -71z"/>
    <path d="M4145 3400 c-4 -6 -13 -9 -20 -6 -7 2 -16 2 -20 -2 -4 -4 -10 -7 -13 -8 -4 0 -14 -4 -22 -7 -18 -8 -293 -85 -329 -93 -44 -9 -46 -9 -58 -17 -7 -5 -17 -6 -22 -2 -5 3 -12 1 -15 -4 -3 -5 -23 -12 -43 -16 -45 -10 -29 -5 -188 -50 -71 -20 -133 -40 -137 -43 -6 -7 -13 -48 -24 -147 -3 -27 -10 -66 -15 -85 -11 -44 1 -51 56 -34 24 7 46 10 48 7 3 -3 12 -1 19 3 7 5 18 10 23 11 6 1 50 14 99 27 49 14 100 28 115 30 14 3 65 15 112 27 l86 21 189 189 c138 138 185 192 177 200 -8 8 -13 8 -18 -1z"/>
    <path d="M1484 3071 c-2 -2 -20 -5 -41 -8 -173 -18 -403 -133 -580 -290 -76 -68 -213 -204 -250 -251 -62 -76 -93 -118 -93 -128 0 -7 45 7 104 31 166 69 360 129 456 141 19 3 51 7 70 10 143 19 313 22 495 9 135 -10 511 -11 580 -1 84 12 101 16 140 25 22 5 53 12 69 15 16 3 30 7 32 8 1 2 12 73 24 158 11 85 23 167 26 182 l5 26 -103 -2 c-137 -4 -395 21 -518 50 -37 8 -79 14 -130 19 -67 6 -281 11 -286 6z"/>
    <path d="M1398 2473 c0 -5 -2 -19 -3 -33 -1 -14 -5 -58 -9 -97 l-8 -73 143 1 c79 0 177 -5 216 -11 40 -6 76 -9 81 -6 10 6 37 184 30 192 -4 4 -379 34 -425 34 -13 0 -24 -3 -25 -7z"/>
    <path d="M4099 2465 c-14 -13 -680 -240 -925 -314 -254 -78 -528 -118 -729 -107 -211 12 -330 27 -655 87 -201 37 -403 34 -565 -8 -33 -8 -64 -16 -70 -18 -5 -1 -23 -7 -38 -13 -16 -7 -31 -12 -34 -12 -3 0 -46 -21 -96 -46 -220 -111 -414 -276 -641 -543 -40 -48 -54 -71 -42 -71 1 0 51 20 110 45 58 24 106 42 106 39 0 -2 10 2 23 10 60 39 345 115 527 142 124 18 369 15 500 -7 36 -5 79 -12 95 -13 17 -2 62 -7 100 -11 39 -4 93 -11 120 -16 49 -8 475 -4 545 6 19 2 55 7 80 11 62 8 326 76 446 115 201 64 547 197 694 267 l95 45 183 199 c101 109 182 203 180 209 -2 6 -6 8 -9 4z"/>
    <path d="M2850 1589 c-36 -15 -248 -67 -295 -73 -22 -3 -53 -9 -70 -14 l-30 -8 -22 -160 c-12 -87 -23 -170 -25 -184 -1 -14 -6 -30 -11 -37 -5 -7 -6 -17 -3 -22 4 -6 2 -38 -4 -73 -16 -89 -18 -107 -24 -165 -3 -29 -20 -150 -37 -270 -17 -120 -33 -247 -36 -282 l-6 -65 24 15 c13 9 47 29 74 44 263 150 385 228 389 248 14 72 27 164 36 247 6 52 15 118 20 145 5 28 12 73 15 100 3 28 21 164 40 303 19 139 35 255 35 258 0 7 -44 3 -70 -7z"/>
    <path d="M1269 1533 c-1 -4 -1 -11 -1 -14 1 -3 -10 -84 -24 -180 -13 -96 -33 -244 -44 -329 -29 -227 -89 -667 -99 -728 -4 -29 -5 -55 -1 -57 4 -2 87 42 186 99 274 158 278 161 291 187 6 13 36 215 67 449 68 516 66 501 72 521 5 17 -19 26 -96 35 -19 3 -59 9 -89 13 -73 11 -261 14 -262 4z"/>
  </g>

  <path d="M564 78V344" stroke="#152035" stroke-width="1.2"/>

  <g transform="translate(626 108)">
    <text x="0" y="86" fill="#E8ECF4" font-family="DM Sans, Avenir Next, Segoe UI, Arial, sans-serif" font-size="92" font-weight="700" letter-spacing="-2.2">Sea Sharp</text>
    <text x="2" y="132" fill="#7B8DA6" font-family="JetBrains Mono, SFMono-Regular, Menlo, monospace" font-size="18" font-weight="500" letter-spacing="2.2">OUTCOMES / DELIVERY DISCIPLINE / SOFTWARE THAT SHIPS</text>
    <path d="M0 170H388" stroke="url(#accentLine)" stroke-width="2"/>
    <text x="0" y="218" fill="#A0AEC0" font-family="DM Sans, Avenir Next, Segoe UI, Arial, sans-serif" font-size="27" font-weight="500">Different stacks. Proven method. Value the business can feel.</text>
  </g>
</svg>
